<?xml version="1.0" encoding="UTF-8"?>
<svg version="1.1" xmlns="http://www.w3.org/2000/svg" width="477" height="333">
<path d="M0 0 C1.00841717 -0.00538554 2.01683435 -0.01077108 3.05580962 -0.01631981 C6.42117194 -0.03058091 9.78613991 -0.02350005 13.15151978 -0.01637268 C15.56994441 -0.02207721 17.98836635 -0.0290418 20.40678406 -0.03717041 C26.28590632 -0.05324644 32.16492983 -0.05520414 38.04406236 -0.04995751 C42.82497536 -0.04590916 47.60585684 -0.04736724 52.38676834 -0.05270576 C53.40908296 -0.0538284 53.40908296 -0.0538284 54.4520504 -0.05497371 C55.83679982 -0.05650526 57.22154923 -0.0580436 58.60629864 -0.05958868 C71.58053175 -0.07330389 84.5547045 -0.06788308 97.52893622 -0.05640347 C109.38457482 -0.0464736 121.2400573 -0.05940917 133.09567182 -0.08333766 C145.28430336 -0.10775193 157.47286225 -0.11733073 169.66151774 -0.11068493 C176.49839418 -0.10719768 183.33515062 -0.10939193 190.17200851 -0.12693596 C196.60218008 -0.14323241 203.0321273 -0.13844006 209.46229362 -0.11963081 C211.81888332 -0.11594715 214.17549512 -0.11904683 216.53206444 -0.1295166 C219.75584891 -0.14274299 222.97864985 -0.13116337 226.20239258 -0.11352539 C227.59211086 -0.1279329 227.59211086 -0.1279329 229.00990427 -0.14263147 C235.86487076 -0.06577688 242.96483555 1.19541585 248.35088193 5.76414019 C253.6021399 11.74925686 255.83930892 18.27151908 255.86862183 26.10441589 C255.87433197 27.02383972 255.88004211 27.94326355 255.88592529 28.89054871 C255.88704315 29.88701416 255.88816101 30.88347961 255.88931274 31.91014099 C255.89427765 32.96930725 255.89924255 34.02847351 255.90435791 35.11973572 C255.91895162 38.62051547 255.92577703 42.12124989 255.93130493 45.62205505 C255.93705882 48.05957541 255.94281652 50.49709575 255.94857788 52.93461609 C255.95908002 58.04560049 255.9649278 63.1565692 255.96841431 68.26756287 C255.97389637 74.80543365 255.99792185 81.3430959 256.02638626 87.88090134 C256.04504218 92.91675923 256.05021983 97.9525672 256.05175018 102.98845673 C256.05477071 105.39811086 256.06277888 107.80776423 256.07593536 110.21738434 C256.09305669 113.59429636 256.09110046 116.97070276 256.08462524 120.34764099 C256.09384003 121.33600952 256.10305481 122.32437805 256.11254883 123.34269714 C256.06134846 131.8991774 254.35344755 139.69817261 248.72817993 146.38768005 C243.49665035 150.3679572 238.9237425 152.29234442 232.38442993 152.81736755 C209.44947318 154.78589926 192.69366328 160.67083078 175.72817993 176.38768005 C174.6970336 177.3137269 173.66448029 178.23820951 172.63052368 179.16111755 C166.98906832 184.24141321 161.58772722 189.51709611 156.2694397 194.93455505 C143.04894259 208.37372837 128.81189338 220.24729566 109.15005493 220.52139282 C106.92611128 220.53034363 104.70214142 220.53382625 102.47817993 220.53294373 C101.2594519 220.53630234 100.04072388 220.53966095 98.7850647 220.54312134 C95.45864985 220.55096814 92.13229745 220.55429734 88.80587769 220.55493712 C86.72447444 220.55565007 84.64307766 220.55778896 82.56167603 220.56043434 C75.29165229 220.56967002 68.02164684 220.57377123 60.75161743 220.57298279 C53.98795806 220.57238165 47.22437835 220.5829451 40.46073914 220.59872645 C34.64057543 220.61181985 28.82043772 220.61716597 23.0002594 220.61652738 C19.52981762 220.61627303 16.0594468 220.61908953 12.58901978 220.62970543 C8.71870836 220.64122308 4.84850568 220.63662857 0.97817993 220.63059998 C-0.16384888 220.63621948 -1.30587769 220.64183899 -2.48251343 220.64762878 C-9.28480812 220.62070379 -14.92899911 220.37745444 -20.89682007 216.82518005 C-27.68557169 209.85777707 -29.38800726 202.5137892 -29.41899109 193.02693176 C-29.42266778 192.29538144 -29.42634447 191.56383111 -29.43013257 190.8101126 C-29.44112752 188.36379325 -29.44500612 185.91751645 -29.44882202 183.47117615 C-29.45508988 181.71490851 -29.46173696 179.9586422 -29.46873474 178.20237732 C-29.48974068 172.4386334 -29.50013447 166.67488931 -29.51010132 160.91111755 C-29.51415029 158.92369701 -29.51826725 156.93627661 -29.5224514 154.94885635 C-29.54149611 145.60977922 -29.55572819 136.27070995 -29.56406337 126.93161714 C-29.57383089 116.16662795 -29.60014084 105.40184464 -29.64056426 94.63692796 C-29.67076829 86.30636149 -29.68553634 77.9758539 -29.68884438 69.64523375 C-29.69119011 64.6744463 -29.70008832 59.70387898 -29.72530556 54.73315048 C-29.74866616 50.0528793 -29.75278752 45.37297195 -29.74254417 40.69265747 C-29.74205063 38.98150036 -29.74831719 37.27032485 -29.76210022 35.55922318 C-29.91938953 14.86287461 -29.91938953 14.86287461 -23.60959339 7.42944908 C-16.92109447 0.93474336 -8.8954058 -0.05742773 0 0 Z M-6.11936951 24.47245789 C-9.84791308 30.66880986 -9.56366904 37.33141583 -9.54647827 44.33665466 C-9.5515892 45.41722641 -9.55670013 46.49779816 -9.56196594 47.6111145 C-9.57582684 51.17080781 -9.57490787 54.73030677 -9.57260132 58.2900238 C-9.57648995 60.77192252 -9.58082497 63.25382058 -9.58558655 65.73571777 C-9.59304108 70.93312235 -9.59276284 76.13045898 -9.5874939 81.3278656 C-9.58169806 87.98016626 -9.59863686 94.63208436 -9.62183857 101.28435421 C-9.63658665 106.40853495 -9.63744616 111.5326488 -9.63432884 116.656847 C-9.63484143 119.10918797 -9.6400675 121.56153274 -9.65014076 124.01385307 C-9.66250931 127.44585524 -9.65571059 130.87731707 -9.64413452 134.30931091 C-9.65177826 135.31683411 -9.659422 136.3243573 -9.66729736 137.3624115 C-9.62244806 143.39362893 -8.82584036 147.89807731 -6.27182007 153.38768005 C-2.9582979 156.30634643 1.56914589 155.67611167 5.78286743 155.65330505 C6.95161911 155.65617523 6.95161911 155.65617523 8.14398193 155.65910339 C9.789727 155.6604621 11.4354829 155.6567876 13.08120728 155.64842224 C15.58747745 155.63774694 18.09302615 155.64831299 20.59927368 155.66111755 C22.20213984 155.65979534 23.80500554 155.65723166 25.40786743 155.65330505 C26.52377762 155.65937775 26.52377762 155.65937775 27.66223145 155.66557312 C32.05378178 155.62643486 35.69750007 155.1688524 39.72817993 153.38768005 C41.49601903 151.24859475 42.84009634 149.37135246 44.22817993 147.01268005 C44.61199829 146.3899823 44.99581665 145.76728455 45.39126587 145.12571716 C48.35469351 140.23780037 50.91204355 135.18072796 53.37661743 130.0243988 C55.16937603 126.52696512 57.39629441 123.54258399 59.72817993 120.38768005 C59.72817993 119.72768005 59.72817993 119.06768005 59.72817993 118.38768005 C60.47067993 118.09893005 61.21317993 117.81018005 61.97817993 117.51268005 C64.61903427 116.48661748 64.61903427 116.48661748 66.60317993 115.38768005 C68.72817993 114.38768005 68.72817993 114.38768005 72.29067993 113.57518005 C75.8015249 112.69394116 75.8015249 112.69394116 77.60317993 110.13768005 C79.66147095 105.10630201 79.85723319 100.10258558 79.88931274 94.71482849 C79.89892029 93.40616821 79.90852783 92.09750793 79.91842651 90.74919128 C79.92327587 89.33181434 79.92755436 87.91443534 79.93130493 86.49705505 C79.93413231 85.77585732 79.93695969 85.05465958 79.93987274 84.31160736 C79.9548193 80.49402506 79.96407704 76.6764801 79.96841431 72.85887146 C79.97388853 68.94085032 79.99790715 65.02317849 80.02638626 61.10526657 C80.04512615 58.06983989 80.05022426 55.03449542 80.05175018 51.99901581 C80.05475231 50.55589644 80.06269702 49.11277765 80.07593536 47.66971588 C80.20488279 35.71741767 80.20488279 35.71741767 76.72817993 24.38768005 C73.71488891 22.88103454 70.60243317 23.23163148 67.29678345 23.22654724 C66.5307782 23.22158234 65.76477295 23.21661743 64.97555542 23.21150208 C62.43605662 23.19687068 59.89662025 23.19007738 57.35708618 23.18455505 C55.59593198 23.17880507 53.83477781 23.17304732 52.07362366 23.1672821 C48.37896431 23.15676979 44.68432674 23.15092842 40.98965454 23.14744568 C36.2502817 23.14195582 31.51119543 23.11791839 26.77191257 23.08947372 C23.13370414 23.07087244 19.49556513 23.06564312 15.85731316 23.0641098 C14.1097653 23.06107782 12.36221882 23.05303099 10.61471748 23.03992462 C8.17257841 23.02291374 5.73114484 23.02473176 3.28897095 23.03123474 C2.56419052 23.02201996 1.8394101 23.01280518 1.09266663 23.00331116 C-1.62425986 23.02603199 -3.74391363 23.07772288 -6.11936951 24.47245789 Z " fill="#ffffff" transform="translate(103.27182006835938,57.61231994628906)"/>
<path d="M0 0 C0.79234543 -0.00511093 1.58469086 -0.01022186 2.40104675 -0.01548767 C5.01752294 -0.02937582 7.6337355 -0.02842752 10.25024414 -0.02612305 C12.07101031 -0.03001036 13.89177558 -0.03434511 15.71253967 -0.03910828 C19.52811625 -0.04656878 23.3436003 -0.04628041 27.15917969 -0.04101562 C32.04629201 -0.03522075 36.93302537 -0.0521532 41.82007504 -0.0753603 C45.58018708 -0.09009923 49.34020789 -0.09096913 53.1003437 -0.08785057 C54.90205193 -0.08836369 56.70376528 -0.09359963 58.50544548 -0.10366249 C61.02601555 -0.11601294 63.5458478 -0.10924389 66.06640625 -0.09765625 C67.18015625 -0.10912186 67.18015625 -0.10912186 68.31640625 -0.12081909 C74.04028438 -0.06272072 77.00495156 1.58867165 81.34790039 5.0871582 C83.58289672 7.88090362 83.95267868 9.71672639 84.09790039 13.2746582 C83.02671902 17.77361998 80.87836383 19.72504332 77.09790039 22.2746582 C72.939511 24.34777798 69.15138606 24.56571072 64.58886719 24.54931641 C63.4805101 24.5569828 63.4805101 24.5569828 62.34976196 24.56480408 C59.91546446 24.5786641 57.48145133 24.57774567 55.04711914 24.57543945 C53.34707027 24.5793291 51.64702236 24.58366433 49.94697571 24.58842468 C46.3853541 24.59587973 42.82383162 24.59560136 39.26220703 24.59033203 C34.71282963 24.58454634 30.16386054 24.60144994 25.61455059 24.6246767 C22.10308994 24.63945885 18.59172651 24.64027953 15.08024025 24.63716698 C13.40381882 24.6376782 11.72739167 24.64287842 10.0510006 24.6529789 C7.69877542 24.66540975 5.34733124 24.65851201 2.99511719 24.64697266 C2.31172775 24.65461639 1.62833832 24.66226013 0.92424011 24.6701355 C-5.26870713 24.60347623 -10.72116933 23.18297219 -15.40209961 19.0871582 C-17.35645731 15.42273752 -17.82066851 12.28652749 -16.90209961 8.2746582 C-12.8895626 1.05843551 -7.70728108 -0.02564611 0 0 Z " fill="#ffffff" transform="translate(324.902099609375,231.725341796875)"/>
<path d="M0 0 C0.93075348 -0.0066568 1.86150696 -0.0133136 2.82046509 -0.02017212 C4.78556346 -0.0302772 6.75069599 -0.0349898 8.71582031 -0.03466797 C11.7095644 -0.03903769 14.70182932 -0.07537036 17.6953125 -0.11328125 C19.60936999 -0.11915069 21.52343444 -0.12311923 23.4375 -0.125 C24.32625824 -0.13937103 25.21501648 -0.15374207 26.13070679 -0.16854858 C32.0488487 -0.12541334 35.49440296 0.90582044 40.3515625 4.3359375 C42.58719624 7.07639176 43.26945005 8.78461105 43.7890625 12.2734375 C43.2322338 16.17123838 41.78573573 18.27583401 39.3515625 21.3359375 C36.14730634 23.47210827 35.28038653 23.59333727 31.59228516 23.62646484 C30.62763336 23.63922455 29.66298157 23.65198425 28.6690979 23.66513062 C27.62845184 23.66735626 26.58780579 23.66958191 25.515625 23.671875 C23.90837051 23.6818602 23.90837051 23.6818602 22.26864624 23.69204712 C20.00072955 23.70217737 17.73278304 23.70686402 15.46484375 23.70654297 C11.99689505 23.71091189 8.5302231 23.74721725 5.0625 23.78515625 C2.85937935 23.79102515 0.65625266 23.79499405 -1.546875 23.796875 C-3.10177139 23.81843155 -3.10177139 23.81843155 -4.68807983 23.84042358 C-11.90316891 23.79469926 -11.90316891 23.79469926 -15.76025391 21.42041016 C-18.69662794 18.1787808 -19.51822048 16.34046877 -20.0859375 11.9609375 C-19.52359843 7.30155665 -18.00899766 5.54713944 -14.6484375 2.3359375 C-9.97683378 -0.24912661 -5.19786136 0.01295757 0 0 Z " fill="#ffffff" transform="translate(392.6484375,272.6640625)"/>
<!-- <path d="M0 0 C0.66 0.33 1.32 0.66 2 1 C0.625 3 0.625 3 -1 5 C-1.66 5 -2.32 5 -3 5 C-3 8.3 -3 11.6 -3 15 C-3.66 14.67 -4.32 14.34 -5 14 C-5.602537 7.01057082 -5.602537 7.01057082 -3.88671875 4.1328125 C-2.66254412 2.69138998 -1.33721771 1.33721771 0 0 Z " fill="#AEAEAE" transform="translate(353,224)"/> -->
<!-- <path d="M0 0 C-1.28519565 2.86697492 -2.57129254 4.97607712 -5 7 C-5.66 7 -6.32 7 -7 7 C-3.86206897 0 -3.86206897 0 0 0 Z " fill="#6B6B6B" transform="translate(125,62)"/> -->
</svg>
